<svg width="534" height="208" viewBox="0 0 534 208" fill="none" xmlns="http://www.w3.org/2000/svg">
<path d="M185.788 115.894H169.805L167.16 123.541H158.708L173.139 83.352H182.511L196.943 123.541H188.433L185.788 115.894ZM183.604 109.455L177.797 92.6663L171.989 109.455H183.604Z" fill="white"/>
<path d="M230.107 91.6888V123.541H222V119.517C220.965 120.897 219.605 121.989 217.918 122.794C216.27 123.561 214.468 123.944 212.514 123.944C210.022 123.944 207.818 123.426 205.902 122.391C203.985 121.318 202.471 119.766 201.359 117.734C200.286 115.664 199.75 113.211 199.75 110.375V91.6888H207.799V109.225C207.799 111.755 208.431 113.71 209.696 115.09C210.961 116.431 212.686 117.102 214.871 117.102C217.094 117.102 218.838 116.431 220.103 115.09C221.368 113.71 222 111.755 222 109.225V91.6888H230.107Z" fill="white"/>
<path d="M245.121 98.3008V113.71C245.121 114.783 245.37 115.569 245.869 116.067C246.405 116.527 247.287 116.757 248.513 116.757H252.251V123.541H247.191C240.407 123.541 237.014 120.245 237.014 113.652V98.3008H233.22V91.6888H237.014V83.8119H245.121V91.6888H252.251V98.3008H245.121Z" fill="white"/>
<path d="M269.884 124.059C266.818 124.059 264.058 123.388 261.605 122.047C259.152 120.667 257.216 118.731 255.798 116.239C254.418 113.748 253.728 110.873 253.728 107.615C253.728 104.357 254.437 101.482 255.855 98.9908C257.312 96.4993 259.286 94.5828 261.777 93.2412C264.269 91.8613 267.048 91.1714 270.114 91.1714C273.181 91.1714 275.96 91.8613 278.451 93.2412C280.943 94.5828 282.897 96.4993 284.316 98.9908C285.772 101.482 286.5 104.357 286.5 107.615C286.5 110.873 285.753 113.748 284.258 116.239C282.802 118.731 280.808 120.667 278.279 122.047C275.787 123.388 272.989 124.059 269.884 124.059ZM269.884 117.044C271.341 117.044 272.702 116.699 273.966 116.009C275.27 115.281 276.305 114.208 277.071 112.79C277.838 111.371 278.221 109.647 278.221 107.615C278.221 104.587 277.416 102.268 275.806 100.658C274.235 99.0099 272.299 98.1858 269.999 98.1858C267.699 98.1858 265.764 99.0099 264.192 100.658C262.659 102.268 261.892 104.587 261.892 107.615C261.892 110.643 262.64 112.981 264.135 114.63C265.668 116.239 267.584 117.044 269.884 117.044Z" fill="white"/>
<path d="M329.662 91.2289C333.572 91.2289 336.715 92.4363 339.091 94.8511C341.506 97.2276 342.714 100.562 342.714 104.855V123.541H334.664V105.948C334.664 103.456 334.032 101.559 332.767 100.256C331.502 98.9141 329.777 98.2433 327.592 98.2433C325.407 98.2433 323.663 98.9141 322.36 100.256C321.095 101.559 320.463 103.456 320.463 105.948V123.541H312.413V105.948C312.413 103.456 311.781 101.559 310.516 100.256C309.251 98.9141 307.526 98.2433 305.342 98.2433C303.118 98.2433 301.355 98.9141 300.052 100.256C298.787 101.559 298.155 103.456 298.155 105.948V123.541H290.105V91.6888H298.155V95.541C299.189 94.1995 300.512 93.1454 302.122 92.3788C303.77 91.6122 305.571 91.2289 307.526 91.2289C310.018 91.2289 312.241 91.7655 314.196 92.8387C316.151 93.8737 317.665 95.3685 318.738 97.3234C319.773 95.4835 321.268 94.0078 323.223 92.8962C325.216 91.7847 327.362 91.2289 329.662 91.2289Z" fill="white"/>
<path d="M345.982 107.5C345.982 104.28 346.615 101.425 347.88 98.9333C349.183 96.4418 350.927 94.5253 353.112 93.1837C355.335 91.8422 357.807 91.1714 360.529 91.1714C362.905 91.1714 364.975 91.6505 366.738 92.6088C368.54 93.567 369.977 94.7744 371.05 96.231V91.6888H379.157V123.541H371.05V118.884C370.016 120.379 368.578 121.625 366.738 122.621C364.937 123.58 362.848 124.059 360.471 124.059C357.788 124.059 355.335 123.369 353.112 121.989C350.927 120.609 349.183 118.673 347.88 116.182C346.615 113.652 345.982 110.758 345.982 107.5ZM371.05 107.615C371.05 105.66 370.667 103.993 369.901 102.613C369.134 101.195 368.099 100.122 366.796 99.3932C365.493 98.6266 364.093 98.2433 362.599 98.2433C361.104 98.2433 359.724 98.6075 358.459 99.3357C357.194 100.064 356.159 101.137 355.354 102.555C354.588 103.935 354.204 105.584 354.204 107.5C354.204 109.417 354.588 111.103 355.354 112.56C356.159 113.978 357.194 115.07 358.459 115.837C359.762 116.604 361.142 116.987 362.599 116.987C364.093 116.987 365.493 116.623 366.796 115.894C368.099 115.128 369.134 114.055 369.901 112.675C370.667 111.256 371.05 109.57 371.05 107.615Z" fill="white"/>
<path d="M394.091 98.3008V113.71C394.091 114.783 394.34 115.569 394.838 116.067C395.375 116.527 396.257 116.757 397.483 116.757H401.22V123.541H396.161C389.376 123.541 385.984 120.245 385.984 113.652V98.3008H382.189V91.6888H385.984V83.8119H394.091V91.6888H401.22V98.3008H394.091Z" fill="white"/>
<path d="M408.792 87.8941C407.374 87.8941 406.186 87.4533 405.228 86.5717C404.308 85.6518 403.848 84.521 403.848 83.1795C403.848 81.8379 404.308 80.7263 405.228 79.8447C406.186 78.9248 407.374 78.4648 408.792 78.4648C410.21 78.4648 411.38 78.9248 412.299 79.8447C413.258 80.7263 413.737 81.8379 413.737 83.1795C413.737 84.521 413.258 85.6518 412.299 86.5717C411.38 87.4533 410.21 87.8941 408.792 87.8941ZM412.759 91.6888V123.541H404.71V91.6888H412.759Z" fill="white"/>
<path d="M432.556 124.059C429.49 124.059 426.73 123.388 424.277 122.047C421.824 120.667 419.888 118.731 418.47 116.239C417.09 113.748 416.4 110.873 416.4 107.615C416.4 104.357 417.109 101.482 418.527 98.9908C419.984 96.4993 421.958 94.5828 424.449 93.2412C426.941 91.8613 429.72 91.1714 432.786 91.1714C435.853 91.1714 438.632 91.8613 441.123 93.2412C443.615 94.5828 445.57 96.4993 446.988 98.9908C448.444 101.482 449.173 104.357 449.173 107.615C449.173 110.873 448.425 113.748 446.93 116.239C445.474 118.731 443.481 120.667 440.951 122.047C438.459 123.388 435.661 124.059 432.556 124.059ZM432.556 117.044C434.013 117.044 435.374 116.699 436.639 116.009C437.942 115.281 438.977 114.208 439.743 112.79C440.51 111.371 440.893 109.647 440.893 107.615C440.893 104.587 440.088 102.268 438.478 100.658C436.907 99.0099 434.971 98.1858 432.671 98.1858C430.372 98.1858 428.436 99.0099 426.864 100.658C425.331 102.268 424.564 104.587 424.564 107.615C424.564 110.643 425.312 112.981 426.807 114.63C428.34 116.239 430.257 117.044 432.556 117.044Z" fill="white"/>
<path d="M470.428 91.2289C474.223 91.2289 477.29 92.4363 479.628 94.8511C481.966 97.2276 483.135 100.562 483.135 104.855V123.541H475.086V105.948C475.086 103.418 474.453 101.482 473.188 100.141C471.923 98.7608 470.198 98.0708 468.014 98.0708C465.79 98.0708 464.027 98.7608 462.724 100.141C461.459 101.482 460.827 103.418 460.827 105.948V123.541H452.777V91.6888H460.827V95.656C461.9 94.2761 463.261 93.2029 464.909 92.4363C466.595 91.6313 468.435 91.2289 470.428 91.2289Z" fill="white"/>
<path fill-rule="evenodd" clip-rule="evenodd" d="M93.5228 81.1569C81.3557 81.1569 71.4924 91.0203 71.4924 103.187V104.729H50.8032V103.187C50.8032 79.594 69.9294 60.4678 93.5228 60.4678V81.1569Z" fill="url(#paint0_linear_5_1264)"/>
<path fill-rule="evenodd" clip-rule="evenodd" d="M110.928 104.729V103.188H131.618V104.729C131.618 128.323 112.491 147.449 88.8979 147.449V126.76C101.065 126.76 110.928 116.896 110.928 104.729Z" fill="url(#paint1_linear_5_1264)"/>
<path fill-rule="evenodd" clip-rule="evenodd" d="M92.7513 50V90.8542L128.21 70.8125L92.7513 50ZM89.6702 157.917L89.6703 117.063L54.2119 137.104L89.6702 157.917Z" fill="#4951FF"/>
<defs>
<linearGradient id="paint0_linear_5_1264" x1="91.6971" y1="71.9078" x2="56.6445" y2="72.8814" gradientUnits="userSpaceOnUse">
<stop stop-color="#3A41CE"/>
<stop offset="1" stop-color="#4951FF"/>
</linearGradient>
<linearGradient id="paint1_linear_5_1264" x1="90.7236" y1="136.009" x2="125.776" y2="135.035" gradientUnits="userSpaceOnUse">
<stop stop-color="#3A41CE"/>
<stop offset="1" stop-color="#4951FF"/>
</linearGradient>
</defs>
</svg>
